<svg id="visual" viewBox="0 0 960 300" width="960" height="300" xmlns="http://www.w3.org/2000/svg" xmlns:xlink="http://www.w3.org/1999/xlink" version="1.1"><rect x="0" y="0" width="960" height="300" fill="#ff0066"></rect><g transform="translate(481.71248057795185 157.32381037400387)"><path d="M62.6 -114C83.3 -96.6 103.6 -84 108.7 -65.9C113.8 -47.7 103.8 -23.8 109.8 3.5C115.9 30.8 138.1 61.7 137.3 87.4C136.5 113.1 112.7 133.6 86 138C59.3 142.4 29.7 130.7 5.9 120.5C-17.8 110.2 -35.7 101.4 -60.6 96C-85.6 90.6 -117.7 88.6 -128.1 73.1C-138.5 57.7 -127.3 28.8 -129.4 -1.2C-131.5 -31.2 -146.9 -62.5 -138 -80.5C-129.1 -98.6 -95.8 -103.4 -68.7 -117.1C-41.7 -130.8 -20.8 -153.4 0.1 -153.6C21 -153.7 42 -131.4 62.6 -114" fill="#BB004B"></path></g></svg>