<svg id="visual" viewBox="0 0 960 300" width="960" height="300" xmlns="http://www.w3.org/2000/svg" xmlns:xlink="http://www.w3.org/1999/xlink" version="1.1"><rect x="0" y="0" width="960" height="300" fill="#ff0066"></rect><g transform="translate(472.76821547521513 154.96908101504948)"><path d="M52.9 -92.8C74.6 -79.1 102.2 -77.1 124.1 -63.5C145.9 -50 162 -25 167.4 3.1C172.8 31.2 167.6 62.5 152 86.9C136.4 111.3 110.5 128.8 83.4 133.2C56.3 137.6 28.2 128.8 3.8 122.3C-20.7 115.8 -41.3 111.6 -59.4 102C-77.4 92.4 -92.8 77.5 -112.2 59.6C-131.5 41.7 -154.8 20.8 -155 -0.2C-155.3 -21.2 -132.7 -42.3 -115.9 -64.7C-99.2 -87.1 -88.3 -110.7 -70 -126.2C-51.7 -141.8 -25.8 -149.4 -5.1 -140.6C15.6 -131.7 31.3 -106.5 52.9 -92.8" fill="#BB004B"></path></g></svg>