<svg id="visual" viewBox="0 0 960 300" width="960" height="300" xmlns="http://www.w3.org/2000/svg" xmlns:xlink="http://www.w3.org/1999/xlink" version="1.1"><path d="M0 88L16 84C32 80 64 72 96 75C128 78 160 92 192 96C224 100 256 94 288 89C320 84 352 80 384 78C416 76 448 76 480 77C512 78 544 80 576 81.5C608 83 640 84 672 84C704 84 736 83 768 83C800 83 832 84 864 85.5C896 87 928 89 944 90L960 91L960 0L944 0C928 0 896 0 864 0C832 0 800 0 768 0C736 0 704 0 672 0C640 0 608 0 576 0C544 0 512 0 480 0C448 0 416 0 384 0C352 0 320 0 288 0C256 0 224 0 192 0C160 0 128 0 96 0C64 0 32 0 16 0L0 0Z" fill="#ff0066"></path><path d="M0 133L16 129C32 125 64 117 96 118.5C128 120 160 131 192 134C224 137 256 132 288 127.5C320 123 352 119 384 117.5C416 116 448 117 480 115.5C512 114 544 110 576 111.5C608 113 640 120 672 120.5C704 121 736 115 768 115C800 115 832 121 864 125C896 129 928 131 944 132L960 133L960 89L944 88C928 87 896 85 864 83.5C832 82 800 81 768 81C736 81 704 82 672 82C640 82 608 81 576 79.5C544 78 512 76 480 75C448 74 416 74 384 76C352 78 320 82 288 87C256 92 224 98 192 94C160 90 128 76 96 73C64 70 32 78 16 82L0 86Z" fill="#bd2b84"></path><path d="M0 172L16 169C32 166 64 160 96 163C128 166 160 178 192 184C224 190 256 190 288 187.5C320 185 352 180 384 174C416 168 448 161 480 156.5C512 152 544 150 576 154.5C608 159 640 170 672 172C704 174 736 167 768 168C800 169 832 178 864 180C896 182 928 177 944 174.5L960 172L960 131L944 130C928 129 896 127 864 123C832 119 800 113 768 113C736 113 704 119 672 118.5C640 118 608 111 576 109.5C544 108 512 112 480 113.5C448 115 416 114 384 115.5C352 117 320 121 288 125.5C256 130 224 135 192 132C160 129 128 118 96 116.5C64 115 32 123 16 127L0 131Z" fill="#733c81"></path><path d="M0 214L16 211.5C32 209 64 204 96 209C128 214 160 229 192 232.5C224 236 256 228 288 225C320 222 352 224 384 220.5C416 217 448 208 480 202C512 196 544 193 576 196C608 199 640 208 672 211.5C704 215 736 213 768 215C800 217 832 223 864 224.5C896 226 928 223 944 221.5L960 220L960 170L944 172.5C928 175 896 180 864 178C832 176 800 167 768 166C736 165 704 172 672 170C640 168 608 157 576 152.5C544 148 512 150 480 154.5C448 159 416 166 384 172C352 178 320 183 288 185.5C256 188 224 188 192 182C160 176 128 164 96 161C64 158 32 164 16 167L0 170Z" fill="#373860"></path><path d="M0 301L16 301C32 301 64 301 96 301C128 301 160 301 192 301C224 301 256 301 288 301C320 301 352 301 384 301C416 301 448 301 480 301C512 301 544 301 576 301C608 301 640 301 672 301C704 301 736 301 768 301C800 301 832 301 864 301C896 301 928 301 944 301L960 301L960 218L944 219.5C928 221 896 224 864 222.5C832 221 800 215 768 213C736 211 704 213 672 209.5C640 206 608 197 576 194C544 191 512 194 480 200C448 206 416 215 384 218.5C352 222 320 220 288 223C256 226 224 234 192 230.5C160 227 128 212 96 207C64 202 32 207 16 209.5L0 212Z" fill="#202731"></path></svg>